<svg width="60" height="60" viewBox="0 0 60 60" fill="none" xmlns="http://www.w3.org/2000/svg">
<path d="M15 18.75H30V22.5H15V18.75ZM15 11.25H37.5V15H15V11.25ZM15 3.75H37.5V7.5H15V3.75Z" fill="black"/>
<path d="M8.83313 52.5L19.3912 33.7575L33.33 45.9263C33.7513 46.3012 34.2519 46.5762 34.7942 46.731C35.3366 46.8857 35.9069 46.916 36.4627 46.8198C37.0184 46.7236 37.5453 46.5032 38.0041 46.1752C38.4629 45.8471 38.8417 45.4198 39.1125 44.925L52.1813 25.4194L49.0669 23.3306L35.9419 42.9206L35.8106 43.1138L21.87 30.945C21.4488 30.5722 20.9492 30.2988 20.4081 30.1449C19.8671 29.9911 19.2984 29.9607 18.744 30.0561C18.1897 30.1515 17.6638 30.3702 17.2053 30.6961C16.7468 31.0219 16.3674 31.4466 16.095 31.9388L7.5 47.2181V3.75H3.75V52.5C3.75099 53.4943 4.1464 54.4475 4.84945 55.1506C5.55249 55.8536 6.50574 56.249 7.5 56.25H56.25V52.5H8.83313Z" fill="black"/>
</svg>
