<svg width="60" height="60" viewBox="0 0 60 60" fill="none" xmlns="http://www.w3.org/2000/svg">
<path d="M52.5 3.75C53.4946 3.75 54.4484 4.14509 55.1516 4.84835C55.8549 5.55161 56.25 6.50544 56.25 7.5V52.5C56.25 53.4946 55.8549 54.4484 55.1516 55.1516C54.4484 55.8549 53.4946 56.25 52.5 56.25H7.5C6.50544 56.25 5.55161 55.8549 4.84835 55.1516C4.14509 54.4484 3.75 53.4946 3.75 52.5V7.5C3.75 6.50544 4.14509 5.55161 4.84835 4.84835C5.55161 4.14509 6.50544 3.75 7.5 3.75H52.5ZM7.5 0C5.51088 0 3.60322 0.790176 2.1967 2.1967C0.790176 3.60322 0 5.51088 0 7.5L0 52.5C0 54.4891 0.790176 56.3968 2.1967 57.8033C3.60322 59.2098 5.51088 60 7.5 60H52.5C54.4891 60 56.3968 59.2098 57.8033 57.8033C59.2098 56.3968 60 54.4891 60 52.5V7.5C60 5.51088 59.2098 3.60322 57.8033 2.1967C56.3968 0.790176 54.4891 0 52.5 0L7.5 0Z" fill="black"/>
<path d="M19.7062 21.6975C19.7011 21.8186 19.7208 21.9395 19.7641 22.0527C19.8074 22.1659 19.8734 22.2691 19.9581 22.3558C20.0427 22.4426 20.1442 22.5111 20.2563 22.5572C20.3684 22.6032 20.4888 22.6259 20.61 22.6237H23.7037C24.2212 22.6237 24.6337 22.2 24.7012 21.6862C25.0387 19.2262 26.7262 17.4338 29.7337 17.4338C32.3062 17.4338 34.6612 18.72 34.6612 21.8137C34.6612 24.195 33.2587 25.29 31.0425 26.955C28.5187 28.7888 26.52 30.93 26.6625 34.4063L26.6737 35.22C26.6777 35.466 26.7782 35.7007 26.9536 35.8732C27.129 36.0458 27.3652 36.1425 27.6112 36.1425H30.6525C30.9011 36.1425 31.1396 36.0437 31.3154 35.8679C31.4912 35.6921 31.59 35.4536 31.59 35.205V34.8112C31.59 32.1187 32.6137 31.335 35.3775 29.2387C37.6612 27.5025 40.0425 25.575 40.0425 21.5288C40.0425 15.8625 35.2575 13.125 30.0187 13.125C25.2675 13.125 20.0625 15.3375 19.7062 21.6975V21.6975ZM25.545 43.3087C25.545 45.3075 27.1387 46.785 29.3325 46.785C31.6162 46.785 33.1875 45.3075 33.1875 43.3087C33.1875 41.2387 31.6125 39.7838 29.3287 39.7838C27.1387 39.7838 25.545 41.2387 25.545 43.3087Z" fill="black"/>
</svg>
