<svg width="60" height="60" viewBox="0 0 60 60" fill="none" xmlns="http://www.w3.org/2000/svg">
<g clip-path="url(#clip0_14_315)">
<path d="M25 13.3333H40V16.6666H25V13.3333Z" fill="black"/>
<path d="M25 20H40V23.3333H25V20Z" fill="black"/>
<path d="M25 26.6667H40V30H25V26.6667Z" fill="black"/>
<path d="M25 33.3333H40V36.6666H25V33.3333Z" fill="black"/>
<path d="M25 40H40V43.3333H25V40Z" fill="black"/>
<path d="M18.3333 13.3333H21.6666V16.6666H18.3333V13.3333Z" fill="black"/>
<path d="M18.3333 20H21.6666V23.3333H18.3333V20Z" fill="black"/>
<path d="M18.3333 26.6667H21.6666V30H18.3333V26.6667Z" fill="black"/>
<path d="M18.3333 33.3333H21.6666V36.6666H18.3333V33.3333Z" fill="black"/>
<path d="M18.3333 40H21.6666V43.3333H18.3333V40Z" fill="black"/>
<path d="M46.6667 3.33331H13.3333C12.4493 3.33331 11.6014 3.6845 10.9763 4.30962C10.3512 4.93474 10 5.78259 10 6.66665V53.3333C10 54.2174 10.3512 55.0652 10.9763 55.6903C11.6014 56.3155 12.4493 56.6666 13.3333 56.6666H46.6667C47.5507 56.6666 48.3986 56.3155 49.0237 55.6903C49.6488 55.0652 50 54.2174 50 53.3333V6.66665C50 5.78259 49.6488 4.93474 49.0237 4.30962C48.3986 3.6845 47.5507 3.33331 46.6667 3.33331ZM46.6667 53.3333H13.3333V6.66665H46.6667V53.3333Z" fill="black"/>
</g>
<defs>
<clipPath id="clip0_14_315">
<rect width="60" height="60" fill="white"/>
</clipPath>
</defs>
</svg>
