<svg width="60" height="60" viewBox="0 0 60 60" fill="none" xmlns="http://www.w3.org/2000/svg">
<path d="M50 30H26.25M45 37.5L52.5 30L45 22.5M32.5 17.5V15C32.5 13.6739 31.9732 12.4021 31.0355 11.4645C30.0979 10.5268 28.8261 10 27.5 10H15C13.6739 10 12.4021 10.5268 11.4645 11.4645C10.5268 12.4021 10 13.6739 10 15V45C10 46.3261 10.5268 47.5979 11.4645 48.5355C12.4021 49.4732 13.6739 50 15 50H27.5C28.8261 50 30.0979 49.4732 31.0355 48.5355C31.9732 47.5979 32.5 46.3261 32.5 45V42.5" stroke="#F24E1E" stroke-width="5.33333" stroke-linecap="round" stroke-linejoin="round"/>
</svg>
